<svg viewBox="0 0 197 49" width="197" xmlns="http://www.w3.org/2000/svg" xmlns:xlink="http://www.w3.org/1999/xlink" height="49">
    <style type="text/css"><![CDATA[
.st1 {fill:#ebebeb;font-family:Comfortaa;font-size:27pt;font-weight:bold}
]]></style>
    <defs/>
    <g transform="translate(-295,-206.5)">
        <g transform="translate(340,229.5)" id="shape1">
            <text class="st1">
                <tspan y="13" x="5">InDiRim</tspan>
            </text>
        </g>
        <path fill="#ebebeb" fill-rule="evenodd" transform="translate(296,212)" id="shape2" d="M37.8,3.2C33.2,-0.5,29.8,-0.8,25.4,1.2L19.2,3.9C15.2,0,8.9,-0.4,4.6,3.2C-0.7,7.5,-1.4,14.5,2.4,19.3L3.8,20.9C2.9,22.1,2.9,23.8,3.8,25C4.4,25.7,5.2,26.2,6.1,26.3C6,27.4,6.3,28.5,7,29.4C7.6,30.2,8.5,30.6,9.5,30.6C9.3,31.6,9.5,32.5,10.2,33.2C10.8,33.9,11.6,34.4,12.5,34.5C12.9,34.5,13.4,34.5,13.8,34.4C13.6,34.4,13.2,35.4,14,36.7C14.6,37.4,15.4,37.9,16.3,38C17.1,38,18,37.8,18.7,37.3L20.7,35.6L22.1,35.6C23.3,36.6,24.9,36.6,26.1,35.6C26.8,35.1,27.2,34.4,27.4,33.6C28.1,33.1,28.9,32.6,29.6,32.1C29.7,32,29.9,31.8,30.1,31.7C30.5,31.4,30.9,30.9,31.1,30.4C31.2,30,31.4,29.6,31.4,29.1C32.2,29,32.9,28.6,33.5,28.1C34.3,27.6,34.8,26.7,34.9,25.7L39.5,19.2C43.4,14.3,42.6,7.2,37.8,3.2zM6.2,24.7C5.8,24.6,5.4,24.4,5.1,24C4.7,23.5,4.5,22.8,4.8,22.2C4.9,21.9,5,21.7,5.2,21.5L12.4,15.7C12.7,15.5,13,15.3,13.3,15.3C13.8,15.3,14.4,15.5,14.8,15.9C15.1,16.2,15.2,16.7,15.2,17.2C15.2,17.6,14.9,18,14.6,18.3L12.2,20.3L10.3,21.8L8.1,23.8C7.1,24.6,6.6,24.7,6.2,24.7L6.2,24.7zM8.2,28.5C7.9,28.2,7.7,27.7,7.8,27.2C7.8,26.7,8,26.3,8.4,26L9.3,25.2L10.4,24.4L11.9,23.2L15.5,20.1C15.9,19.9,16.3,19.7,16.8,19.8C17.2,19.8,17.6,20,17.9,20.4C18.4,21,18.5,21.8,18,22.5C18,22.7,17.9,22.7,17.8,22.7L15.1,24.9L12.6,26.9L11.4,27.9C10.5,28.7,10.4,28.8,10.4,28.8C9.6,29.2,8.8,29.1,8.2,28.5L8.2,28.5zM23.5,20.7L29.4,28C29.6,28.2,29.7,28.5,29.8,28.8C29.8,29,29.7,29.3,29.7,29.6C29.6,29.9,29.4,30.1,29.2,30.3C28.5,31,27.4,31,26.7,30.3C27.3,29.1,27.1,27.8,26.3,26.8C25.7,26.1,24.9,25.6,24,25.5C23.7,25.5,23.5,25.5,23.2,25.6C23.3,24.8,23,24,22.5,23.3C22,22.7,21.3,22.3,20.5,22.1C20.4,22,20.4,21.9,20.5,21.7C20.5,21.3,20.8,20.9,21.1,20.6C21.4,20.4,21.8,20.2,22.3,20.1C22.8,20.2,23.2,20.4,23.5,20.7L23.5,20.7zM23.7,34.7C23.3,34.6,23,34.4,22.8,34.1L23.7,33.1L25.4,31.7C25.7,32,25.9,32.5,25.9,33C25.8,33.4,25.6,33.9,25.3,34.2C24.8,34.5,24.2,34.6,23.7,34.7zM12.6,32.9C12.2,32.9,11.8,32.7,11.5,32.4C11,31.7,10.9,30.9,11.3,30.2L11.5,29.9L12.5,29.2L13.5,28.3L15.2,26.9L16.5,25.8L18.7,24.1L19,23.7C19.2,23.7,19.3,23.7,19.4,23.6C20.1,23.4,20.7,23.7,21.1,24.2C21.7,24.8,21.8,25.8,21.2,26.5C21.1,26.5,21.1,26.6,21,26.6L18.4,28.8L17.3,29.8L15.9,30.8L14.8,31.7L13.9,32.5C13.5,32.8,13.1,33,12.6,32.9L12.6,32.9zM17.7,36C17.4,36.3,16.9,36.5,16.5,36.4C16,36.4,15.6,36.1,15.4,35.8C14.7,35.1,14.8,34,15.5,33.3L17.2,31.9L18.3,31.1L19.4,30.1L22.2,27.9C22.6,27.5,23.1,27.2,23.6,27.1C23.9,27.1,24,27.2,24.2,27.2L25.5,28.8C25.5,29,25.5,29.2,25.4,29.4C25.4,29.8,25.1,30.1,24.9,30.3L21.7,32.9L20.4,33.9L19.5,34.6L17.7,36zM32,27.2C31.9,27.2,31.7,27.3,31.5,27.3C31.2,27.3,30.9,27.2,30.6,27L24.7,19.8L24.2,19.3C23.8,18.6,23.9,17.7,24.6,17.1C25.3,16.5,26.4,16.5,27.1,17.2L30.6,21.5L32.5,23.9C33.5,25.1,33.4,26.2,32.6,26.8C32.4,26.9,32.3,27.1,32,27.2zM38.3,18.1L34.3,23.7C34.3,23.7,34.3,23.6,34.2,23.4L32,20.8L28.3,16.2C27.2,14.8,25.2,14.6,23.8,15.7C23.1,16.3,22.6,17.1,22.5,18L22.5,18.5C21.7,18.5,20.9,18.8,20.2,19.3C20.1,19.4,19.9,19.5,19.8,19.6C19.7,19.7,19.6,19.8,19.5,20C19.5,19.8,19.5,19.6,19.3,19.4C18.7,18.7,17.9,18.3,17,18.2L16.8,18.2C17.1,17.1,16.9,15.9,16.2,15C16,14.8,15.9,14.8,15.9,14.7C14.7,13.5,12.8,13.4,11.5,14.4L5,19.8L3.7,18.1C2.1,16.2,1.3,13.7,1.6,11.2C1.8,8.7,3.1,6.4,5,4.8C6.8,3.2,9.1,2.3,11.5,2.2C11.9,2.2,12.2,2.2,12.5,2.3C14.4,2.4,16.2,3.2,17.7,4.5L14.2,6.1C13.3,6.5,12.9,7.5,13.2,8.4C13.8,9.8,14.8,11,16.2,11.8C16.4,11.9,16.6,12,16.8,12.1C17.1,12.2,17.4,12.2,17.7,12.3C19,12.7,20.5,12.6,21.7,12L23.4,11.2L24.9,10.6L23.8,9.3L22.3,10L21.1,10.6C20.4,10.8,19.6,11,18.8,10.9C18.3,10.9,17.8,10.8,17.3,10.6C16.2,10.1,15.3,9.2,14.8,8.1C14.6,7.6,14.7,7.6,14.8,7.5L18.9,5.6L20.3,5.1L22.4,4.2L26.2,2.5C29.5,1,33.5,1.5,36.3,3.9C41.1,7.8,41.7,14,38.3,18.1L38.3,18.1z"/>
    </g>
</svg>
